<svg width="259" height="67" viewBox="0 0 259 67" fill="none" xmlns="http://www.w3.org/2000/svg">
<g clip-path="url(#clip0_1_4083)">
<path d="M202.83 22.311H193.245C190.966 22.311 189.826 23.986 189.826 25.259V44.488H202.696C207.053 44.488 210.605 40.803 210.605 36.314V30.418C210.806 25.996 207.254 22.311 202.83 22.311ZM206.785 36.381C206.785 38.726 205.042 40.602 202.763 40.602H193.781V26.264H202.763C205.042 26.264 206.785 28.14 206.785 30.485V36.381ZM152.022 22.311H146.324C141.968 22.311 138.415 25.996 138.415 30.485V36.381C138.415 40.87 141.968 44.555 146.324 44.555H152.022C156.379 44.555 159.931 40.87 159.931 36.381V30.485C159.931 25.996 156.379 22.311 152.022 22.311ZM156.044 36.381C156.044 38.726 154.301 40.602 152.022 40.602H146.324C144.045 40.602 142.303 38.726 142.303 36.381V30.485C142.303 28.14 144.045 26.264 146.324 26.264H152.022C154.301 26.264 156.044 28.14 156.044 30.485V36.381ZM127.891 33.433L135.466 44.689H130.707L124.54 35.577H119.446V44.689H115.558V22.311H119.446V31.557H124.272L130.439 22.311H135.198L127.891 33.433ZM230.178 22.311H219.453V26.197H230.178C231.116 26.197 231.719 26.465 231.719 27.738V32.16C231.719 32.16 230.982 30.887 228.435 30.887H221.665C217.978 30.887 215.498 33.366 215.498 37.118V39.932C215.498 42.746 217.509 44.689 220.458 44.689H228.971C232.859 44.689 235.741 42.076 235.741 38.458V27.872C235.607 24.589 233.462 22.311 230.178 22.311ZM231.719 38.391C231.719 40.535 229.574 40.736 228.971 40.736H220.324C219.721 40.736 219.52 40.468 219.52 39.999V37.185C219.52 35.175 220.593 34.907 221.665 34.907H231.719V38.391ZM185.268 30.016V28.609C185.268 25.192 182.453 22.378 179.035 22.378H168.377C165.897 22.378 164.69 23.919 164.69 25.46V36.314V44.689H168.578V36.247H176.353V38.391L180.509 44.622H185.268L179.571 36.247C182.788 35.778 185.268 33.232 185.268 30.016ZM168.578 32.227V26.197H178.833C180.107 26.197 181.112 27.269 181.112 28.475V29.882C181.112 31.155 180.04 32.227 178.833 32.227H168.578ZM253.37 31.289C256.453 31.289 259.067 33.768 259.067 36.984V38.994C259.067 42.411 256.788 44.689 253.37 44.689H240.969V40.803H253.37C254.442 40.803 255.045 40.535 255.045 39.128V37.118C255.045 36.18 254.308 35.443 253.37 35.443H245.795C242.712 35.443 240.366 32.964 240.366 30.016V28.006C240.366 24.723 242.645 22.445 245.795 22.445H249.013H255.247V26.331H245.929C244.991 26.331 244.388 26.599 244.388 27.872V29.882C244.388 30.686 245.125 31.423 245.929 31.423L253.37 31.289Z" fill="black"/>
<path d="M90.4223 67.0001H65.2864L35.9277 33.4331H61.1306L90.4223 67.0001Z" fill="#9E301E"/>
<path d="M61.1304 33.433H86.1992L115.491 0H90.422L61.1304 33.433Z" fill="#EC1C24"/>
<path d="M44.3062 14.6731H0L16.7572 33.5671L61.1304 33.4331L44.3062 14.6731Z" fill="#EC1C24"/>
</g>
<defs>
<clipPath id="clip0_1_4083">
<rect width="259" height="67" fill="white"/>
</clipPath>
</defs>
</svg>
