<?xml version="1.0" encoding="utf-8"?>
<!-- Generator: Adobe Illustrator 24.0.0, SVG Export Plug-In . SVG Version: 6.00 Build 0)  -->
<svg version="1.1" id="Layer_1" xmlns="http://www.w3.org/2000/svg" xmlns:xlink="http://www.w3.org/1999/xlink" x="0px" y="0px"
	 viewBox="0 0 386.4 100" style="enable-background:new 0 0 386.4 100;" xml:space="preserve">
<style type="text/css">
	.st0{fill:#FFFFFF;}
	.st1{fill:#9E301E;}
	.st2{fill:#EC1C24;}
</style>
<g>
	<path class="st0" d="M302.6,33.3h-14.3c-3.4,0-5.1,2.5-5.1,4.4v28.7h19.2c6.5,0,11.8-5.5,11.8-12.2v-8.8
		C314.5,38.8,309.2,33.3,302.6,33.3 M308.5,54.3c0,3.5-2.6,6.3-6,6.3h-13.4V39.2h13.4c3.4,0,6,2.8,6,6.3V54.3z M226.8,33.3h-8.5
		c-6.5,0-11.8,5.5-11.8,12.2v8.8c0,6.7,5.3,12.2,11.8,12.2h8.5c6.5,0,11.8-5.5,11.8-12.2v-8.8C238.6,38.8,233.3,33.3,226.8,33.3
		 M232.8,54.3c0,3.5-2.6,6.3-6,6.3h-8.5c-3.4,0-6-2.8-6-6.3v-8.8c0-3.5,2.6-6.3,6-6.3h8.5c3.4,0,6,2.8,6,6.3V54.3z M190.8,49.9
		l11.3,16.8h-7.1l-9.2-13.6h-7.6v13.6h-5.8V33.3h5.8v13.8h7.2l9.2-13.8h7.1L190.8,49.9z M343.4,33.3h-16v5.8h16
		c1.4,0,2.3,0.4,2.3,2.3V48c0,0-1.1-1.9-4.9-1.9l0,0h-10.1c-5.5,0-9.2,3.7-9.2,9.3v4.2c0,4.2,3,7.1,7.4,7.1h12.7
		c5.8,0,10.1-3.9,10.1-9.3V41.6C351.5,36.7,348.3,33.3,343.4,33.3 M345.7,57.3c0,3.2-3.2,3.5-4.1,3.5h-12.9c-0.9,0-1.2-0.4-1.2-1.1
		v-4.2c0-3,1.6-3.4,3.2-3.4h15V57.3z M276.4,44.8v-2.1c0-5.1-4.2-9.3-9.3-9.3h-15.9c-3.7,0-5.5,2.3-5.5,4.6v16.2v12.5h5.8V54.1h11.6
		v3.2l6.2,9.3h7.1l-8.5-12.5C272.7,53.4,276.4,49.6,276.4,44.8 M251.5,48.1v-9h15.3c1.9,0,3.4,1.6,3.4,3.4v2.1
		c0,1.9-1.6,3.5-3.4,3.5H251.5z M378,46.7c4.6,0,8.5,3.7,8.5,8.5v3c0,5.1-3.4,8.5-8.5,8.5h-18.5v-5.8H378c1.6,0,2.5-0.4,2.5-2.5v-3
		c0-1.4-1.1-2.5-2.5-2.5h-11.3c-4.6,0-8.1-3.7-8.1-8.1v-3c0-4.9,3.4-8.3,8.1-8.3h4.8h9.3v5.8h-13.9c-1.4,0-2.3,0.4-2.3,2.3v3
		c0,1.2,1.1,2.3,2.3,2.3L378,46.7"/>
	<polygon class="st1" points="134.9,100 97.4,100 53.6,49.9 91.2,49.9 	"/>
	<polygon class="st2" points="91.2,49.9 128.6,49.9 172.3,0 134.9,0 	"/>
	<polygon class="st2" points="66.1,21.9 0,21.9 25,50.1 91.2,49.9 	"/>
</g>
</svg>
